<svg xmlns="http://www.w3.org/2000/svg" viewBox="0 0 128 128">
  <rect width="128" height="128" rx="28" fill="#0f172a"/>
  <!-- Crop marks -->
  <g stroke="#F4C430" stroke-width="8" fill="none" opacity="1" stroke-linecap="round">
    <path d="M15,42 L15,15 L42,15"/>
    <path d="M86,15 L113,15 L113,42"/>
    <path d="M113,86 L113,113 L86,113"/>
    <path d="M42,113 L15,113 L15,86"/>
  </g>
  <!-- Kangaroo silhouette — centered within crop marks area -->
  <!-- Original bounds: ~x:579-2088, y:398-1607 = ~1509w x 1209h -->
  <!-- Target area: 26,24 to 102,108 = 76w x 84h, scale = min(76/1509, 84/1209) ≈ 0.05 -->
  <g transform="translate(128,6) scale(-0.056,0.056) rotate(20, 1100, 900)" fill="#F4C430">
    <path fill-rule="evenodd" d="M 703.34375 554.960938 C 703.34375 554.960938 672.664062 568.761719 643.523438 613.238281 C 614.382812 657.71875 579.105469 671.53125 579.105469 697.601562 C 579.105469 723.679688 614.382812 757.421875 692.605469 712.941406 C 692.605469 712.941406 749.355469 709.871094 744.753906 751.28125 C 740.152344 792.699219 715.613281 893.929688 786.167969 970.621094 C 786.167969 970.621094 773.894531 1013.5625 714.078125 1071.847656 C 654.261719 1130.128906 697.207031 1219.089844 697.207031 1219.089844 L 712.546875 1193.015625 C 712.546875 1193.015625 715.613281 1081.050781 812.242188 1050.371094 C 812.242188 1050.371094 873.59375 1015.097656 895.066406 966.011719 C 895.066406 966.011719 887.144531 1005.382812 842.917969 1039.054688 C 842.917969 1039.054688 919.113281 1203.96875 1023.410156 1257.652344 C 1023.410156 1257.652344 941.097656 1037.296875 1049.480469 994.351562 C 1049.480469 994.351562 956.433594 1042.121094 1041.300781 1272.476562 C 1041.300781 1272.476562 1112.878906 1482.796875 1097.539062 1543.734375 C 1097.539062 1543.734375 1044.371094 1551.5 975.863281 1559.679688 C 907.351562 1567.859375 863.382812 1583.195312 853.160156 1600.578125 C 853.160156 1600.578125 1114.929688 1606.714844 1153.78125 1594.445312 C 1192.640625 1582.175781 1123.109375 1375.625 1138.441406 1338.8125 C 1153.78125 1302.003906 1233.539062 1311.203125 1263.191406 1286.664062 C 1263.191406 1286.664062 1251.738281 1308.410156 1202.109375 1314.410156 C 1202.109375 1314.410156 1175.941406 1316.589844 1167.210938 1335.132812 C 1167.210938 1335.132812 1226.320312 1337.332031 1246.558594 1375.675781 C 1266.800781 1414.019531 1337.089844 1536.511719 1452.128906 1550.355469 C 1567.160156 1564.203125 1741.839844 1555.683594 1833.441406 1557.8125 C 1925.050781 1559.941406 2088.011719 1553.550781 2043.28125 1537.574219 C 1998.539062 1521.597656 1808.949219 1508.816406 1735.449219 1506.6875 C 1661.960938 1504.554688 1470.238281 1469.40625 1428.691406 1396.976562 C 1387.160156 1324.550781 1389.289062 1220.167969 1365.851562 1131.761719 C 1342.421875 1043.355469 1274.988281 853.199219 1038.859375 836.71875 C 1038.859375 836.71875 922.757812 822.871094 871.632812 723.820312 C 820.507812 624.761719 874.828125 588.539062 789.617188 552.328125 C 789.617188 552.328125 786.421875 485.230469 739.554688 445.820312 C 739.554688 445.820312 720.382812 429.710938 711.863281 397.890625 C 711.863281 397.890625 671.386719 440.621094 706.535156 504.53125 C 706.535156 504.53125 721.449219 536.160156 703.34375 554.960938"/>
    <path fill-rule="evenodd" d="M 1084.058594 1477.886719 C 1084.058594 1477.886719 1086.109375 1510.605469 1086.109375 1521.855469 C 1086.109375 1533.101562 895.917969 1512.652344 866.265625 1519.808594 C 866.265625 1519.808594 894.894531 1487.089844 939.886719 1495.269531 C 984.878906 1503.449219 1067.699219 1484.019531 1084.058594 1477.886719"/>
  </g>
</svg>
